<?xml version="1.0" encoding="utf-8"?>
<!-- Generator: Adobe Illustrator 16.0.0, SVG Export Plug-In . SVG Version: 6.00 Build 0)  -->
<!DOCTYPE svg PUBLIC "-//W3C//DTD SVG 1.1//EN" "http://www.w3.org/Graphics/SVG/1.1/DTD/svg11.dtd">
<svg version="1.1" xmlns="http://www.w3.org/2000/svg" xmlns:xlink="http://www.w3.org/1999/xlink" x="0px" y="0px" width="52px"
	 height="52px" viewBox="0 0 52 52" enable-background="new 0 0 52 52" xml:space="preserve">
<g id="_x30_6">
</g>
<g id="_x30_5">
	<g id="pins" display="none">
		<g display="inline">
			<path opacity="0.82" fill="#718096" d="M6006.374,4723.725c-10.4-1.966-21.228,0.581-24.887,5.848
				c-2.581,3.716-1.185,7.868,2.944,11.136c2.893,2.29,5.085,4.802,6.146,7.443l0.69,1.706c0.202,0.505,1.315,0.763,2.001,0.461
				l1.871-0.828c3.604-1.587,7.844-2.742,12.515-3.24c6.566-0.697,12.054-3.173,14.196-6.9
				C6025.408,4733.181,6018.435,4726.008,6006.374,4723.725z M6006.682,4737.894c-1.942,0.438-4.275,0.452-6.554-0.063
				c-2.28-0.512-4.063-1.458-5.104-2.566c-1.045-1.113-1.346-2.381-0.671-3.56c0.684-1.181,2.209-2.038,4.145-2.479
				c1.94-0.435,4.275-0.452,6.554,0.063c2.281,0.512,4.064,1.458,5.104,2.566c1.046,1.113,1.347,2.381,0.669,3.563
				C6010.143,4736.596,6008.617,4737.453,6006.682,4737.894z"/>
			<path fill="#4C51BF" stroke="#F7FAFC" stroke-width="0.5" stroke-miterlimit="10" d="M5991.091,4710.65
				c-7.636,0.494-13.839,7.151-14.263,15.301c-0.299,5.74,2.198,10.88,6.172,14.009c2.787,2.194,5.19,4.896,6.898,8.11l1.101,2.072
				c0.329,0.618,1.16,0.627,1.5,0.016l0.929-1.671c1.782-3.206,4.152-6.022,7.057-8.092c4.085-2.908,6.78-7.865,6.789-13.498
				C6007.289,4717.577,5999.947,4710.077,5991.091,4710.65z M5996.669,4729.508c-1.117,1.169-2.656,1.891-4.362,1.889
				c-1.707-0.004-3.244-0.73-4.357-1.902c-1.113-1.174-1.795-2.781-1.793-4.562c0.003-1.781,0.69-3.387,1.807-4.557
				c1.118-1.169,2.656-1.89,4.363-1.888c1.707,0.003,3.244,0.729,4.357,1.901c1.113,1.174,1.795,2.781,1.793,4.562
				C5998.474,4726.732,5997.787,4728.338,5996.669,4729.508z"/>
		</g>
		<g display="inline">
			<path opacity="0.82" fill="#718096" d="M6175.42,4772.74c-10.401-1.966-21.228,0.581-24.887,5.848
				c-2.581,3.716-1.185,7.868,2.944,11.136c2.893,2.29,5.085,4.802,6.146,7.443l0.691,1.706c0.201,0.505,1.314,0.763,2,0.461
				l1.871-0.828c3.604-1.587,7.844-2.742,12.515-3.24c6.566-0.697,12.054-3.173,14.196-6.9
				C6194.454,4782.196,6187.481,4775.023,6175.42,4772.74z M6175.728,4786.909c-1.942,0.438-4.275,0.452-6.554-0.063
				c-2.281-0.512-4.064-1.458-5.104-2.566c-1.046-1.113-1.347-2.381-0.671-3.56c0.684-1.181,2.209-2.038,4.145-2.479
				c1.94-0.435,4.275-0.452,6.554,0.063c2.281,0.512,4.064,1.458,5.104,2.566c1.046,1.113,1.347,2.381,0.669,3.563
				C6179.189,4785.611,6177.664,4786.469,6175.728,4786.909z"/>
			<path fill="#4C51BF" stroke="#F7FAFC" stroke-width="0.5" stroke-miterlimit="10" d="M6160.138,4759.666
				c-7.636,0.494-13.839,7.151-14.263,15.301c-0.299,5.74,2.198,10.88,6.172,14.009c2.787,2.194,5.19,4.896,6.898,8.11l1.101,2.072
				c0.329,0.618,1.16,0.627,1.5,0.016l0.929-1.671c1.782-3.206,4.152-6.022,7.057-8.091c4.085-2.909,6.78-7.866,6.789-13.499
				C6176.335,4766.593,6168.993,4759.093,6160.138,4759.666z M6165.716,4778.523c-1.118,1.169-2.656,1.891-4.363,1.889
				c-1.707-0.004-3.244-0.73-4.357-1.902c-1.113-1.174-1.795-2.781-1.792-4.562c0.003-1.781,0.69-3.387,1.807-4.557
				c1.118-1.168,2.656-1.89,4.363-1.888c1.707,0.003,3.243,0.729,4.357,1.901c1.113,1.174,1.795,2.781,1.793,4.563
				C6167.52,4775.748,6166.833,4777.354,6165.716,4778.523z"/>
		</g>
		<g display="inline">
			<path opacity="0.82" fill="#718096" d="M6138.943,4715.4c-10.4-1.966-21.228,0.581-24.887,5.849
				c-2.581,3.715-1.185,7.867,2.944,11.135c2.893,2.291,5.085,4.802,6.146,7.443l0.691,1.706c0.201,0.506,1.314,0.763,2,0.461
				l1.871-0.828c3.604-1.586,7.844-2.742,12.515-3.24c6.566-0.697,12.054-3.173,14.196-6.9
				C6157.977,4724.857,6151.005,4717.684,6138.943,4715.4z M6139.251,4729.569c-1.942,0.438-4.275,0.452-6.554-0.063
				c-2.281-0.513-4.064-1.459-5.104-2.567c-1.046-1.113-1.347-2.381-0.671-3.56c0.684-1.181,2.209-2.038,4.145-2.478
				c1.94-0.436,4.275-0.453,6.554,0.063c2.28,0.512,4.063,1.459,5.104,2.566c1.045,1.113,1.346,2.381,0.669,3.563
				C6142.712,4728.272,6141.187,4729.13,6139.251,4729.569z"/>
			<path fill="#4C51BF" stroke="#F7FAFC" stroke-width="0.5" stroke-miterlimit="10" d="M6123.661,4702.326
				c-7.636,0.494-13.839,7.152-14.263,15.301c-0.299,5.74,2.198,10.881,6.172,14.009c2.787,2.194,5.19,4.896,6.898,8.111
				l1.101,2.071c0.329,0.618,1.16,0.627,1.5,0.016l0.929-1.671c1.782-3.206,4.152-6.022,7.057-8.091
				c4.085-2.909,6.78-7.865,6.789-13.499C6139.858,4709.253,6132.517,4701.753,6123.661,4702.326z M6129.239,4721.184
				c-1.117,1.169-2.656,1.891-4.362,1.889c-1.707-0.003-3.244-0.729-4.357-1.902c-1.113-1.173-1.795-2.781-1.792-4.562
				c0.003-1.781,0.69-3.386,1.807-4.557c1.118-1.168,2.656-1.89,4.363-1.888c1.707,0.003,3.243,0.729,4.357,1.901
				c1.113,1.174,1.795,2.781,1.793,4.563C6131.043,4718.408,6130.356,4720.014,6129.239,4721.184z"/>
		</g>
		<g display="inline">
			<path opacity="0.82" fill="#718096" d="M5901.855,4658.214c-10.401-1.966-21.228,0.581-24.887,5.848
				c-2.581,3.716-1.186,7.868,2.944,11.136c2.892,2.29,5.085,4.801,6.146,7.443l0.691,1.706c0.201,0.505,1.314,0.763,2.001,0.46
				l1.871-0.828c3.604-1.586,7.844-2.742,12.516-3.24c6.566-0.697,12.053-3.172,14.196-6.9
				C5920.889,4667.67,5913.917,4660.497,5901.855,4658.214z M5902.164,4672.383c-1.942,0.438-4.275,0.452-6.554-0.063
				c-2.281-0.513-4.063-1.458-5.104-2.567c-1.045-1.113-1.346-2.381-0.671-3.56c0.684-1.181,2.209-2.038,4.145-2.478
				c1.94-0.436,4.275-0.453,6.554,0.063c2.281,0.513,4.063,1.459,5.104,2.567c1.046,1.113,1.346,2.381,0.669,3.563
				C5905.624,4671.085,5904.099,4671.942,5902.164,4672.383z"/>
			<path fill="#4C51BF" stroke="#F7FAFC" stroke-width="0.5" stroke-miterlimit="10" d="M5886.573,4645.14
				c-7.635,0.494-13.839,7.151-14.263,15.3c-0.298,5.741,2.198,10.881,6.173,14.01c2.787,2.194,5.19,4.895,6.898,8.11l1.101,2.071
				c0.329,0.619,1.161,0.627,1.5,0.016l0.929-1.671c1.782-3.205,4.151-6.022,7.057-8.091c4.084-2.908,6.78-7.865,6.789-13.498
				C5902.771,4652.066,5895.429,4644.566,5886.573,4645.14z M5892.151,4663.997c-1.118,1.169-2.656,1.89-4.363,1.888
				c-1.707-0.003-3.243-0.729-4.357-1.901c-1.113-1.174-1.795-2.781-1.793-4.562c0.003-1.781,0.69-3.387,1.807-4.557
				c1.117-1.169,2.656-1.891,4.363-1.889c1.707,0.004,3.243,0.73,4.357,1.902c1.113,1.174,1.795,2.78,1.793,4.562
				C5893.956,4661.221,5893.268,4662.826,5892.151,4663.997z"/>
		</g>
		<g display="inline">
			<path opacity="0.82" fill="#718096" d="M5892.394,4748.204c-10.4-1.966-21.228,0.581-24.887,5.848
				c-2.581,3.716-1.185,7.868,2.944,11.135c2.893,2.291,5.085,4.802,6.146,7.444l0.69,1.706c0.202,0.505,1.314,0.763,2.001,0.461
				l1.871-0.829c3.604-1.586,7.844-2.742,12.515-3.24c6.566-0.696,12.054-3.172,14.196-6.899
				C5911.427,4757.66,5904.455,4750.487,5892.394,4748.204z M5892.702,4762.373c-1.942,0.438-4.275,0.452-6.554-0.063
				c-2.28-0.512-4.063-1.458-5.104-2.567c-1.045-1.113-1.346-2.38-0.671-3.56c0.684-1.181,2.209-2.038,4.145-2.478
				c1.94-0.436,4.275-0.453,6.554,0.063c2.281,0.513,4.064,1.459,5.104,2.567c1.046,1.113,1.347,2.381,0.669,3.563
				C5896.163,4761.075,5894.637,4761.933,5892.702,4762.373z"/>
			<path fill="#4C51BF" stroke="#F7FAFC" stroke-width="0.5" stroke-miterlimit="10" d="M5877.111,4735.13
				c-7.636,0.494-13.839,7.151-14.263,15.3c-0.299,5.741,2.198,10.881,6.172,14.01c2.787,2.194,5.19,4.896,6.898,8.11l1.101,2.071
				c0.329,0.619,1.16,0.627,1.5,0.016l0.929-1.671c1.782-3.205,4.152-6.022,7.057-8.091c4.085-2.908,6.78-7.865,6.789-13.498
				C5893.309,4742.057,5885.967,4734.557,5877.111,4735.13z M5882.689,4753.987c-1.117,1.169-2.656,1.891-4.362,1.888
				c-1.707-0.003-3.244-0.729-4.357-1.901c-1.113-1.174-1.795-2.781-1.793-4.562c0.003-1.781,0.69-3.387,1.807-4.557
				c1.118-1.169,2.656-1.891,4.363-1.889c1.707,0.004,3.244,0.73,4.357,1.902c1.113,1.174,1.795,2.78,1.793,4.562
				C5884.494,4751.212,5883.807,4752.816,5882.689,4753.987z"/>
		</g>
		<g display="inline">
			<path opacity="0.82" fill="#718096" d="M5868.931,4704.386c-10.401-1.966-21.228,0.581-24.887,5.848
				c-2.582,3.716-1.186,7.868,2.944,11.135c2.893,2.291,5.085,4.802,6.146,7.443l0.691,1.707c0.201,0.505,1.314,0.763,2,0.46
				l1.871-0.828c3.604-1.586,7.844-2.742,12.515-3.24c6.566-0.697,12.054-3.172,14.196-6.899
				C5887.965,4713.842,5880.992,4706.669,5868.931,4704.386z M5869.239,4718.555c-1.942,0.438-4.275,0.452-6.554-0.063
				c-2.281-0.513-4.064-1.458-5.104-2.567c-1.046-1.113-1.346-2.381-0.671-3.56c0.684-1.181,2.209-2.038,4.145-2.478
				c1.94-0.436,4.275-0.453,6.554,0.063c2.28,0.513,4.063,1.459,5.104,2.567c1.045,1.113,1.346,2.381,0.669,3.563
				C5872.7,4717.257,5871.174,4718.114,5869.239,4718.555z"/>
			<path fill="#4C51BF" stroke="#F7FAFC" stroke-width="0.5" stroke-miterlimit="10" d="M5853.648,4691.312
				c-7.636,0.494-13.839,7.151-14.263,15.3c-0.299,5.741,2.198,10.881,6.172,14.01c2.787,2.194,5.19,4.896,6.898,8.11l1.101,2.071
				c0.329,0.619,1.16,0.627,1.5,0.016l0.929-1.671c1.782-3.205,4.152-6.022,7.057-8.091c4.085-2.908,6.78-7.865,6.789-13.498
				C5869.846,4698.238,5862.504,4690.738,5853.648,4691.312z M5859.227,4710.168c-1.118,1.17-2.656,1.891-4.363,1.889
				c-1.707-0.003-3.244-0.729-4.357-1.901c-1.113-1.174-1.795-2.781-1.792-4.562c0.003-1.781,0.69-3.387,1.807-4.557
				c1.117-1.169,2.656-1.891,4.363-1.889c1.707,0.004,3.243,0.73,4.357,1.902c1.113,1.174,1.795,2.781,1.793,4.562
				C5861.031,4707.393,5860.344,4708.998,5859.227,4710.168z"/>
		</g>
		<g display="inline">
			<path opacity="0.82" fill="#718096" d="M5855.296,4740.651c-10.4-1.967-21.228,0.581-24.887,5.848
				c-2.581,3.715-1.185,7.867,2.944,11.135c2.893,2.291,5.085,4.802,6.146,7.443l0.69,1.706c0.202,0.506,1.314,0.764,2.001,0.461
				l1.871-0.828c3.604-1.586,7.844-2.742,12.515-3.24c6.566-0.697,12.053-3.172,14.196-6.9
				C5874.33,4750.107,5867.357,4742.934,5855.296,4740.651z M5855.604,4754.819c-1.942,0.438-4.275,0.453-6.554-0.063
				c-2.281-0.513-4.063-1.459-5.104-2.567c-1.045-1.113-1.346-2.381-0.671-3.56c0.684-1.181,2.209-2.038,4.145-2.478
				c1.94-0.436,4.275-0.453,6.554,0.063c2.281,0.513,4.064,1.459,5.104,2.567c1.046,1.113,1.347,2.38,0.669,3.563
				C5859.064,4753.522,5857.54,4754.38,5855.604,4754.819z"/>
			<path fill="#4C51BF" stroke="#F7FAFC" stroke-width="0.5" stroke-miterlimit="10" d="M5840.014,4727.576
				c-7.636,0.495-13.839,7.152-14.264,15.301c-0.298,5.74,2.198,10.881,6.173,14.009c2.787,2.194,5.19,4.896,6.898,8.111
				l1.101,2.071c0.329,0.618,1.16,0.627,1.5,0.016l0.929-1.671c1.782-3.205,4.152-6.022,7.057-8.091
				c4.085-2.909,6.78-7.865,6.789-13.499C5856.211,4734.503,5848.869,4727.004,5840.014,4727.576z M5845.592,4746.434
				c-1.117,1.169-2.656,1.891-4.363,1.889c-1.707-0.003-3.243-0.729-4.357-1.901c-1.113-1.174-1.795-2.781-1.793-4.562
				c0.003-1.781,0.69-3.387,1.807-4.557c1.118-1.169,2.656-1.891,4.363-1.889c1.707,0.003,3.243,0.729,4.357,1.902
				c1.113,1.173,1.795,2.78,1.793,4.562C5847.396,4743.658,5846.709,4745.264,5845.592,4746.434z"/>
		</g>
		<g display="inline">
			<path opacity="0.82" fill="#718096" d="M5920.078,4762.024c-10.4-1.967-21.228,0.581-24.887,5.848
				c-2.581,3.715-1.185,7.867,2.944,11.135c2.893,2.291,5.085,4.802,6.146,7.443l0.691,1.706c0.201,0.506,1.314,0.763,2,0.461
				l1.871-0.828c3.604-1.586,7.844-2.742,12.515-3.24c6.566-0.697,12.054-3.172,14.196-6.9
				C5939.112,4771.48,5932.139,4764.307,5920.078,4762.024z M5920.386,4776.192c-1.942,0.438-4.275,0.453-6.554-0.063
				c-2.281-0.513-4.064-1.459-5.104-2.567c-1.046-1.113-1.347-2.381-0.671-3.56c0.684-1.181,2.209-2.038,4.145-2.478
				c1.94-0.436,4.275-0.453,6.554,0.063c2.281,0.513,4.064,1.459,5.104,2.567c1.046,1.113,1.347,2.38,0.669,3.563
				C5923.847,4774.896,5922.322,4775.753,5920.386,4776.192z"/>
			<path fill="#4C51BF" stroke="#F7FAFC" stroke-width="0.5" stroke-miterlimit="10" d="M5904.796,4748.949
				c-7.636,0.495-13.839,7.152-14.263,15.301c-0.299,5.741,2.198,10.881,6.172,14.009c2.787,2.194,5.19,4.896,6.898,8.111
				l1.101,2.071c0.329,0.618,1.16,0.627,1.5,0.016l0.929-1.671c1.782-3.205,4.152-6.022,7.057-8.091
				c4.085-2.909,6.78-7.865,6.789-13.498C5920.993,4755.876,5913.651,4748.377,5904.796,4748.949z M5910.375,4767.807
				c-1.118,1.169-2.656,1.891-4.363,1.889c-1.707-0.003-3.244-0.729-4.357-1.902c-1.113-1.173-1.795-2.78-1.792-4.562
				c0.003-1.78,0.69-3.386,1.807-4.556c1.118-1.169,2.656-1.891,4.363-1.889c1.707,0.004,3.243,0.73,4.357,1.902
				c1.113,1.173,1.795,2.78,1.793,4.562C5912.178,4765.031,5911.491,4766.637,5910.375,4767.807z"/>
		</g>
		<g display="inline">
			<path opacity="0.82" fill="#718096" d="M5878.867,4766.478c-10.4-1.967-21.228,0.58-24.887,5.848
				c-2.581,3.715-1.185,7.867,2.944,11.135c2.893,2.291,5.085,4.802,6.146,7.443l0.691,1.706c0.201,0.506,1.314,0.764,2,0.461
				l1.871-0.828c3.604-1.586,7.844-2.742,12.515-3.24c6.566-0.697,12.053-3.172,14.196-6.9
				C5897.901,4775.934,5890.928,4768.76,5878.867,4766.478z M5879.175,4780.646c-1.942,0.438-4.275,0.453-6.554-0.063
				c-2.28-0.513-4.063-1.459-5.104-2.567c-1.045-1.113-1.346-2.381-0.671-3.56c0.684-1.181,2.209-2.038,4.145-2.478
				c1.94-0.436,4.275-0.453,6.554,0.063c2.281,0.513,4.064,1.459,5.104,2.567c1.046,1.113,1.347,2.38,0.669,3.563
				C5882.636,4779.349,5881.111,4780.206,5879.175,4780.646z"/>
			<path fill="#4C51BF" stroke="#F7FAFC" stroke-width="0.5" stroke-miterlimit="10" d="M5863.585,4753.402
				c-7.636,0.494-13.839,7.152-14.263,15.301c-0.299,5.74,2.198,10.881,6.172,14.009c2.787,2.194,5.19,4.896,6.898,8.111
				l1.101,2.071c0.329,0.618,1.16,0.627,1.5,0.016l0.929-1.671c1.782-3.206,4.152-6.022,7.057-8.091
				c4.085-2.909,6.78-7.865,6.789-13.499C5879.782,4760.329,5872.44,4752.83,5863.585,4753.402z M5869.163,4772.26
				c-1.117,1.169-2.656,1.891-4.362,1.889c-1.708-0.003-3.244-0.729-4.357-1.902c-1.113-1.173-1.795-2.78-1.793-4.562
				c0.003-1.78,0.69-3.386,1.807-4.557c1.118-1.168,2.656-1.89,4.363-1.888c1.707,0.003,3.243,0.729,4.357,1.902
				c1.113,1.173,1.795,2.78,1.793,4.562C5870.967,4769.484,5870.28,4771.09,5869.163,4772.26z"/>
		</g>
		<g display="inline">
			<path opacity="0.82" fill="#718096" d="M5904.653,4780.293c-10.401-1.966-21.228,0.581-24.887,5.849
				c-2.582,3.715-1.186,7.867,2.944,11.135c2.893,2.29,5.085,4.802,6.146,7.443l0.691,1.706c0.201,0.506,1.314,0.763,2,0.461
				l1.871-0.828c3.604-1.586,7.844-2.742,12.515-3.24c6.566-0.697,12.054-3.173,14.196-6.9
				C5923.687,4789.75,5916.714,4782.576,5904.653,4780.293z M5904.96,4794.462c-1.942,0.438-4.275,0.453-6.554-0.063
				c-2.281-0.513-4.064-1.459-5.104-2.567c-1.046-1.113-1.347-2.381-0.671-3.56c0.684-1.181,2.209-2.038,4.145-2.478
				c1.94-0.436,4.275-0.453,6.554,0.063c2.281,0.512,4.063,1.459,5.104,2.566c1.045,1.113,1.346,2.381,0.669,3.563
				C5908.421,4793.165,5906.896,4794.021,5904.96,4794.462z"/>
			<path fill="#4C51BF" stroke="#F7FAFC" stroke-width="0.5" stroke-miterlimit="10" d="M5889.37,4767.219
				c-7.636,0.495-13.839,7.152-14.263,15.301c-0.299,5.74,2.198,10.88,6.172,14.009c2.787,2.194,5.19,4.896,6.898,8.111l1.101,2.071
				c0.329,0.618,1.16,0.627,1.5,0.016l0.929-1.671c1.782-3.206,4.152-6.022,7.057-8.091c4.085-2.909,6.78-7.866,6.789-13.499
				C5905.567,4774.146,5898.226,4766.646,5889.37,4767.219z M5894.949,4786.076c-1.118,1.169-2.656,1.891-4.363,1.889
				c-1.707-0.003-3.244-0.73-4.357-1.902c-1.113-1.174-1.795-2.78-1.792-4.562c0.003-1.781,0.69-3.386,1.807-4.557
				c1.118-1.168,2.656-1.89,4.363-1.888c1.707,0.003,3.243,0.729,4.357,1.901c1.113,1.174,1.795,2.781,1.793,4.563
				C5896.752,4783.301,5896.065,4784.906,5894.949,4786.076z"/>
		</g>
	</g>
</g>
<g id="_x30_3">
</g>
<g id="_x30_2">
	<g id="IMPLANTADOS">
	</g>
	<g id="ANDAMENTO">
	</g>
	<g id="CURSOR">
	</g>
</g>
<g id="_x30_1">
</g>
<g id="_x30_1_1_">
	<path opacity="0.82" fill="#718096" d="M-58.387,18.375c-11.51-2.176-23.491,0.643-27.54,6.471
		c-2.856,4.111-1.312,8.706,3.258,12.322c3.2,2.535,5.627,5.313,6.801,8.237l0.765,1.888c0.223,0.559,1.455,0.844,2.214,0.509
		l2.07-0.916c3.988-1.756,8.68-3.035,13.85-3.586c7.267-0.771,13.338-3.511,15.709-7.636
		C-37.325,28.839-45.041,20.901-58.387,18.375z M-58.046,34.054c-2.149,0.485-4.731,0.501-7.253-0.069
		c-2.524-0.567-4.497-1.614-5.648-2.841c-1.157-1.232-1.49-2.635-0.742-3.939c0.756-1.307,2.444-2.255,4.586-2.742
		c2.147-0.481,4.731-0.501,7.253,0.07c2.524,0.567,4.497,1.614,5.648,2.841c1.157,1.232,1.49,2.634,0.741,3.943
		C-54.217,32.618-55.905,33.567-58.046,34.054z"/>
	<path fill="#4C51BF" stroke="#F7FAFC" stroke-width="0.5533" stroke-miterlimit="10" d="M-75.299,3.907
		c-8.449,0.547-15.314,7.914-15.783,16.931c-0.331,6.353,2.432,12.04,6.83,15.502c3.084,2.429,5.744,5.417,7.634,8.976l1.218,2.292
		c0.363,0.684,1.284,0.694,1.66,0.018l1.028-1.85c1.971-3.547,4.594-6.664,7.81-8.954c4.52-3.219,7.502-8.704,7.512-14.937
		C-57.375,11.571-65.5,3.272-75.299,3.907z M-69.126,24.774c-1.237,1.293-2.939,2.092-4.828,2.089
		c-1.889-0.003-3.589-0.808-4.822-2.104c-1.232-1.299-1.986-3.078-1.984-5.048c0.003-1.971,0.764-3.747,2-5.042
		c1.237-1.293,2.939-2.092,4.828-2.089s3.589,0.807,4.821,2.104c1.232,1.298,1.987,3.077,1.984,5.048
		C-67.129,21.703-67.89,23.479-69.126,24.774z"/>
	<path fill="#5A67D7" stroke="#F7FAFC" stroke-width="0.5477" stroke-miterlimit="10" d="M17.371,3.907
		C8.922,4.454,2.057,11.82,1.588,20.838C1.257,27.19,4.02,32.878,8.418,36.34c3.084,2.429,5.744,5.417,7.634,8.976l1.218,2.292
		c0.363,0.684,1.284,0.694,1.66,0.018l1.028-1.85c1.971-3.547,4.594-6.664,7.81-8.954c4.52-3.219,7.502-8.704,7.512-14.937
		C35.295,11.571,27.171,3.272,17.371,3.907z M23.544,24.774c-1.237,1.293-2.939,2.092-4.828,2.089
		c-1.889-0.003-3.589-0.808-4.822-2.104c-1.232-1.299-1.986-3.078-1.984-5.048c0.003-1.971,0.764-3.747,2-5.042
		c1.237-1.293,2.939-2.092,4.828-2.089s3.589,0.807,4.821,2.104c1.232,1.298,1.987,3.077,1.984,5.048
		C25.541,21.703,24.78,23.479,23.544,24.774z"/>
</g>
<g id="MATERIAIS">
</g>
<g id="guias">
</g>
<g id="Camada_13">
	<circle fill="none" stroke="#FF00FF" stroke-width="4" stroke-linejoin="round" stroke-miterlimit="10" stroke-dasharray="5,5,5,5,5,5" cx="365.882" cy="1499.356" r="57.85"/>
</g>
</svg>
